<svg id="Layer_1" xmlns="http://www.w3.org/2000/svg" xlink="http://www.w3.org/1999/xlink" x="0px" y="0px" viewBox="0 0 112 29" space="preserve" class="sc-kMribo ifZvhm"><g><path fill="#004852" d="M50.44,24.79h-0.2c-0.73,2.11-2.43,4.01-5.91,4.01c-4.33,0-6.76-3-6.76-8.26V7.17h5.18v12.84 c0,2.92,1.09,4.5,3.56,4.5c2.07,0,4.13-1.09,4.13-3.36V7.17h5.18v21.14h-5.18V24.79z"></path><path fill="#004852" d="M59.87,28.31V7.17h5.18v3.52h0.2c0.81-2.23,2.51-4.01,5.67-4.01c2.88,0,5.1,1.42,6.12,4.25h0.08 c0.77-2.35,3.12-4.25,6.48-4.25c4.13,0,6.48,3,6.48,8.26v13.37H84.9V15.47c0-3.04-1.09-4.54-3.4-4.54c-2.03,0-3.93,1.13-3.93,3.4 v13.97h-5.18V15.47c0-3.04-1.09-4.54-3.4-4.54c-1.98,0-3.93,1.13-3.93,3.4v13.97H59.87z"></path><path fill="#004852" d="M92.56,17.7c0-6.68,3.6-11.02,9.8-11.02c6.6,0,9.64,4.86,9.64,10.65v1.7H97.95v0.53c0,3.04,1.74,5.1,5.14,5.1 c2.55,0,4.09-1.21,5.39-2.88l2.79,3.12c-1.74,2.39-4.82,3.89-8.75,3.89C96.29,28.8,92.56,24.46,92.56,17.7z M97.95,15.51v0.32h8.67 v-0.36c0-2.92-1.5-4.9-4.17-4.9C99.73,10.57,97.95,12.6,97.95,15.51z"></path><path fill="#004852" d="M32.94,0h-5.18v23.2c0,3.24,1.66,5.1,5.18,5.1h2.79v-4.13h-2.79V0z"></path><polygon fill="#3CD9BE" points="8.6,0 14.15,0 5.55,28.31 0,28.31  "></polygon><polygon fill="#004852" points="17.04,0 11.49,0 20.09,28.31 25.64,28.31  "></polygon></g></svg>